<svg viewBox="0 0 895.000000 830.000000">

<g transform="translate(0.000000,830.000000) scale(0.100000,-0.100000)"
fill="#000000" stroke="none">
<path d="M3096 8173 c-148 -63 -367 -147 -485 -187 -303 -102 -768 -287 -882
-352 -90 -50 -105 -64 -217 -191 -66 -76 -199 -246 -294 -378 -328 -453 -560
-751 -885 -1133 -321 -379 -325 -384 -306 -404 34 -38 257 -202 459 -338 110
-74 276 -187 368 -250 92 -63 195 -134 229 -158 34 -23 95 -72 136 -110 40
-37 78 -69 83 -71 5 -2 35 -30 66 -63 31 -33 80 -76 107 -96 28 -21 61 -50 74
-65 13 -15 43 -41 68 -58 l45 -31 58 63 c32 35 56 68 53 73 -3 5 -1 6 4 3 12
-8 45 28 158 171 44 55 83 101 87 101 4 1 9 -7 12 -16 9 -36 10 -900 3 -2618
-4 -968 -8 -1822 -8 -1898 -1 -77 3 -143 8 -148 11 -11 1157 6 1174 17 17 10
3098 5 3364 -6 132 -5 286 -10 343 -10 l102 0 0 353 c-1 444 -16 1148 -29
1377 -28 482 -35 869 -32 1850 1 606 6 1019 12 1024 21 22 98 -80 114 -152 3
-17 10 -32 14 -32 4 0 29 -38 55 -85 49 -86 54 -91 111 -85 11 1 36 14 55 29
80 63 171 131 260 196 52 38 101 77 108 87 7 10 19 18 26 18 15 0 136 89 136
100 0 8 45 38 112 75 38 21 209 134 218 144 3 3 37 28 77 55 39 26 84 63 99
81 17 21 33 31 42 27 10 -3 13 -1 8 6 -4 6 1 10 13 9 22 -1 87 50 96 76 4 10
9 16 12 13 6 -6 96 53 101 66 2 4 10 8 17 8 15 0 164 98 240 157 28 22 50 46
49 54 -1 19 -364 505 -464 624 -82 96 -241 313 -435 590 -65 94 -157 222 -205
285 -47 63 -117 160 -155 215 -101 147 -255 342 -322 406 -128 124 -286 188
-863 349 -179 50 -389 111 -466 135 -133 41 -382 144 -449 185 -16 10 -46 21
-66 25 -33 6 -41 3 -76 -28 -122 -111 -567 -217 -910 -217 -150 0 -283 15
-528 61 -278 52 -408 89 -507 145 -42 24 -87 44 -100 43 -13 -1 -144 -53 -292
-116z"/>
</g>
</svg>
