<svg viewBox="0 0 1205.000000 1121.000000">

<g transform="translate(0.000000,1121.000000) scale(0.100000,-0.100000)"
fill="currentColor" stroke="none">
<path d="M4890 9741 c-56 -33 -592 -247 -715 -286 -82 -26 -238 -82 -345 -125
-107 -43 -256 -101 -330 -130 -74 -28 -178 -76 -231 -106 -90 -50 -105 -64
-217 -191 -66 -76 -194 -239 -283 -363 -314 -436 -566 -759 -892 -1143 l-329
-389 24 -25 c42 -46 280 -217 608 -438 387 -261 491 -337 630 -465 157 -144
345 -307 370 -320 35 -19 83 33 377 399 1 2 5 2 8 0 13 -14 22 -791 15 -1309
-5 -322 -14 -1208 -21 -1968 -10 -1193 -9 -1386 3 -1398 12 -12 91 -13 558 -3
300 5 766 14 1035 18 689 10 2695 3 3089 -12 l329 -12 -7 445 c-9 574 -21
1036 -36 1325 -26 533 -36 1308 -26 2083 5 419 12 762 16 762 20 0 72 -76 101
-149 40 -102 124 -225 157 -229 17 -3 81 40 240 160 119 90 408 297 642 461
234 164 508 357 610 429 102 72 194 136 204 144 18 12 6 31 -185 286 -112 150
-237 314 -279 363 -79 93 -247 320 -410 555 -52 74 -155 218 -230 320 -75 102
-156 214 -180 250 -71 106 -243 321 -301 375 -129 121 -271 178 -846 341 -575
162 -636 182 -861 291 -152 72 -160 73 -209 30 -46 -42 -127 -80 -241 -113
-430 -127 -723 -135 -1244 -35 -256 50 -362 81 -460 137 -76 44 -109 52 -138
35z"/>
</g>
</svg>
