<?xml version="1.0" encoding="UTF-8" standalone="no"?>
<!-- Created with Inkscape (http://www.inkscape.org/) -->

<svg
   viewBox="0 0 194.03381 252.59497">
  <defs
     id="defs2" />
  <g
     id="layer1"
     transform="translate(-264.13811,-11.185008)">

 <path
       style="fill:#000000;stroke-width:0.264583"
       d="m 311.79859,263.69016 c -5.23464,-0.13693 -6.4928,-0.24437 -7.16302,-0.61168 -1.41268,-0.77422 -1.52018,-1.04787 -1.19889,-3.05165 0.70815,-4.41656 1.64261,-15.65115 2.14089,-25.73924 0.2983,-6.03911 0.77709,-15.02833 1.064,-19.97604 0.56525,-9.74791 1.19928,-35.30115 1.45083,-58.47292 0.15403,-14.18776 0.0723,-17.38575 -0.80775,-31.61771 -0.15249,-2.46602 -1.24211,-8.87953 -1.68567,-9.92187 -0.20746,-0.48752 -0.24926,-0.46669 -0.53108,0.26458 -0.16824,0.43656 -1.09048,2.79849 -2.04942,5.24873 l -1.74352,4.45498 -1.88194,-0.17891 c -4.83956,-0.46009 -13.3051,-3.29484 -25.79821,-8.63873 -4.45406,-1.90521 -8.40394,-3.61992 -8.7775,-3.81045 l -0.6792,-0.34644 1.65363,-10.53542 c 3.44524,-21.949847 7.75866,-44.558175 9.13542,-47.882236 1.27683,-3.082817 4.60849,-7.930537 6.59044,-9.589411 2.56005,-2.14273 13.00841,-9.037039 16.42866,-10.840392 1.65243,-0.871253 6.86368,-3.266849 11.58055,-5.323548 4.71688,-2.056698 11.50344,-5.211893 15.08125,-7.011543 5.97545,-3.005669 6.66669,-3.426038 8.48949,-5.16278 1.0914,-1.039878 2.24643,-2.070352 2.56673,-2.289939 0.64726,-0.443745 0.83172,-0.409477 3.78327,0.70284 1.0914,0.411306 3.47265,1.075267 5.29166,1.47547 3.12733,0.688047 3.7608,0.733969 11.64167,0.843942 12.41905,0.173302 15.06309,-0.203553 20.50521,-2.922607 3.84895,-1.923059 3.88996,-1.929217 5.5927,-0.839988 0.78883,0.504609 3.96083,2.747656 7.04889,4.984547 7.10369,5.145681 12.02636,7.853094 25.5907,14.074596 11.13643,5.107903 17.49496,8.580203 21.13901,11.543701 1.88864,1.535925 2.49551,2.245915 4.05232,4.740907 1.6761,2.686177 1.95403,3.348265 3.28496,7.825489 0.90775,3.053667 2.13454,8.285816 3.2657,13.927868 1.47257,7.344947 2.25833,10.522887 4.19699,16.974327 5.3343,17.751427 6.86158,23.254227 6.98904,25.181477 l 0.12553,1.89814 -3.9007,1.62996 c -2.14538,0.89648 -6.20673,2.88733 -9.02521,4.42412 -4.18072,2.27954 -6.01741,3.104 -9.97268,4.47656 -2.66648,0.92532 -6.29789,2.0494 -8.06979,2.49794 -2.75932,0.6985 -3.49699,0.79003 -5.1405,0.63781 -2.23921,-0.20741 -2.02415,0.19547 -2.45465,-4.5982 -0.25015,-2.7854 -0.39603,-3.42908 -0.97559,-4.30486 -0.3748,-0.56636 -0.73185,-0.97935 -0.79344,-0.91776 -0.18954,0.18955 -0.89032,3.05791 -1.29602,5.3048 -0.69717,3.86116 -0.8931,12.99053 -0.61932,28.85751 0.41292,23.9306 0.94884,36.87917 2.25585,54.50417 1.4211,19.16371 3.28695,49.88969 3.28785,54.14301 5.3e-4,2.96204 -0.0235,3.09423 -0.6375,3.49655 -0.57212,0.37487 -3.72731,0.41822 -30.49323,0.41898 -16.42029,5.3e-4 -39.38008,0.0496 -51.02174,0.10913 -11.64167,0.0596 -24.02417,0.0335 -27.51667,-0.0578 z"
       id="path39" />
  </g>
</svg>