<svg viewBox="0 0 895.000000 830.000000">

<g transform="translate(0.000000,830.000000) scale(0.100000,-0.100000)"
fill="#000000" stroke="none">
<path d="M3370 8283 c-8 -3 -85 -37 -170 -75 -85 -39 -294 -121 -465 -183
-523 -191 -856 -321 -966 -375 -86 -43 -117 -66 -179 -129 -92 -93 -213 -243
-356 -443 -340 -473 -610 -821 -870 -1122 -197 -228 -325 -379 -334 -397 -12
-22 185 -178 480 -379 528 -360 707 -496 930 -705 113 -106 196 -175 212 -175
29 0 332 338 355 398 3 6 11 12 18 12 10 0 14 -63 20 -282 8 -304 5 -731 -15
-2955 -10 -1043 -11 -1435 -3 -1445 9 -11 115 -11 625 1 707 16 3430 21 4000
7 l367 -8 3 108 c4 151 -17 1114 -36 1614 -33 871 -37 1135 -31 1990 3 470 8
866 11 879 l5 24 30 -29 c17 -16 47 -60 66 -98 49 -97 163 -266 180 -266 8 0
101 67 206 148 106 81 334 246 507 367 173 120 401 281 506 356 105 75 238
169 295 208 131 89 184 135 173 153 -15 25 -390 515 -507 663 -66 83 -275 368
-465 635 -508 712 -606 830 -760 913 -99 53 -314 126 -623 213 -561 156 -736
216 -998 343 -46 22 -90 37 -99 34 -9 -3 -33 -21 -52 -39 -41 -38 -122 -71
-275 -113 -445 -122 -677 -128 -1193 -32 -255 48 -388 89 -494 151 -68 41 -72
42 -98 33z"/>
</g>
</svg>
