<?xml version="1.0" standalone="no"?>
<!DOCTYPE svg PUBLIC "-//W3C//DTD SVG 20010904//EN"
 "http://www.w3.org/TR/2001/REC-SVG-20010904/DTD/svg10.dtd">
<svg version="1.0" xmlns="http://www.w3.org/2000/svg"
 width="2050.000000pt" height="2263.000000pt" viewBox="0 0 2050.000000 2263.000000"
 preserveAspectRatio="xMidYMid meet">
<metadata>
Created by potrace 1.16, written by Peter Selinger 2001-2019
</metadata>
<g transform="translate(0.000000,2263.000000) scale(0.100000,-0.100000)"
fill="#000000" stroke="none">
<path d="M11870 22321 c-14 -4 -100 -42 -191 -85 -91 -42 -173 -76 -182 -76
-8 0 -23 -7 -31 -16 -9 -8 -16 -13 -16 -10 0 3 -24 -6 -53 -19 -75 -33 -227
-86 -227 -78 0 3 -6 0 -14 -6 -7 -6 -21 -9 -30 -5 -9 3 -16 1 -16 -6 0 -7 -8
-9 -20 -5 -11 4 -20 2 -20 -4 0 -6 -7 -8 -15 -5 -8 4 -21 1 -29 -5 -7 -6 -16
-8 -19 -5 -3 3 -11 2 -18 -2 -7 -4 -27 -9 -44 -11 -16 -2 -37 -6 -45 -9 -17
-7 -19 -8 -205 -28 -111 -13 -264 -16 -736 -16 -328 0 -652 4 -720 10 -185 14
-279 22 -329 26 -25 3 -70 7 -100 10 -30 3 -73 7 -95 10 -22 3 -56 5 -75 5
-19 1 -41 5 -47 11 -7 6 -22 8 -34 5 -30 -8 -317 48 -475 92 -77 22 -190 60
-252 85 -127 51 -140 53 -226 29 -53 -14 -72 -27 -141 -95 -44 -42 -123 -112
-175 -154 -104 -85 -235 -153 -620 -322 -113 -50 -288 -127 -390 -172 -300
-134 -791 -330 -1278 -511 -820 -306 -1124 -450 -1802 -854 -140 -83 -311
-185 -380 -225 -401 -234 -716 -526 -949 -876 -188 -283 -261 -471 -351 -909
-17 -82 -44 -202 -60 -265 -65 -260 -287 -1314 -381 -1810 -87 -460 -106 -557
-173 -870 -19 -90 -62 -348 -111 -670 -20 -129 -49 -307 -65 -395 -16 -88 -34
-205 -40 -260 -6 -54 -16 -116 -22 -137 -24 -80 30 -113 376 -233 232 -80 923
-323 1286 -452 1115 -396 1230 -430 1629 -483 198 -26 295 -26 337 -1 36 22
75 107 131 286 81 257 118 356 179 479 35 72 64 138 64 148 0 9 4 19 8 22 5 3
19 -63 31 -147 13 -84 38 -239 57 -345 52 -296 86 -784 136 -1937 16 -364 15
-2252 -1 -2540 -6 -104 -15 -361 -21 -570 -11 -425 -26 -950 -40 -1370 -5
-154 -12 -370 -15 -480 -11 -382 -51 -1099 -95 -1730 -10 -154 -22 -325 -25
-380 -3 -55 -8 -109 -10 -120 -14 -62 -108 -1374 -121 -1675 -3 -85 -12 -213
-20 -285 -8 -71 -25 -240 -39 -375 -15 -135 -38 -326 -52 -425 -14 -99 -30
-242 -36 -317 -9 -125 -9 -141 8 -177 36 -81 127 -115 345 -131 374 -26 2301
-52 3685 -48 1182 3 2431 19 3350 43 710 19 1399 27 1830 21 1257 -15 1790
-18 1988 -8 314 16 311 13 303 327 -3 116 -10 278 -16 360 -5 83 -17 267 -25
410 -39 660 -142 2222 -190 2865 -33 443 -80 1028 -90 1120 -3 25 -12 117 -20
205 -8 88 -19 203 -25 255 -98 915 -97 905 -105 1370 -7 407 -23 1096 -30
1300 -3 91 -10 561 -15 1045 -5 484 -15 1107 -21 1385 -19 852 -8 1113 67
1533 14 78 34 195 44 260 34 212 51 230 108 115 42 -83 84 -286 108 -518 9
-91 18 -171 20 -178 16 -54 243 -63 478 -18 619 117 1210 295 1732 521 223 97
521 230 909 405 143 64 303 134 355 154 231 90 247 99 269 159 36 95 5 217
-272 1047 -493 1475 -731 2291 -892 3060 -139 666 -249 1027 -415 1365 -163
331 -356 567 -594 727 -262 175 -1299 640 -2274 1020 -579 225 -781 314 -1262
554 -480 240 -862 456 -1304 737 -349 221 -440 269 -536 281 -25 3 -56 1 -70
-3z"/>
</g>
</svg>
