<?xml version="1.0" standalone="no"?>
<!DOCTYPE svg PUBLIC "-//W3C//DTD SVG 20010904//EN"
 "http://www.w3.org/TR/2001/REC-SVG-20010904/DTD/svg10.dtd">
<svg viewBox="0 0 1205.000000 1121.000000">

<g transform="translate(0.000000,1121.000000) scale(0.100000,-0.100000)"
fill="#000000" stroke="none">
<path d="M4508 11125 c-3 -3 -25 -8 -49 -11 -24 -3 -62 -15 -84 -26 -22 -11
-69 -35 -105 -53 -36 -18 -89 -41 -119 -51 -32 -11 -57 -27 -63 -39 -12 -27
-51 -43 -129 -56 -35 -5 -91 -22 -124 -38 -33 -15 -90 -36 -127 -47 -38 -10
-68 -24 -68 -30 0 -14 -188 -80 -295 -104 -44 -10 -120 -33 -170 -52 -49 -20
-112 -43 -140 -53 -27 -10 -57 -26 -65 -35 -8 -10 -39 -25 -68 -35 -29 -9 -58
-22 -65 -28 -6 -7 -16 -12 -22 -12 -41 -1 -134 -20 -164 -32 -20 -9 -45 -19
-56 -23 -11 -5 -73 -33 -139 -64 -65 -31 -121 -56 -125 -56 -4 0 -15 -13 -24
-30 -13 -21 -26 -30 -44 -30 -31 0 -156 -125 -179 -178 -7 -19 -22 -36 -33
-39 -21 -5 -165 -169 -183 -208 -6 -14 -14 -25 -18 -25 -12 0 -190 -237 -205
-272 -7 -18 -29 -54 -49 -80 -20 -26 -36 -53 -36 -61 0 -8 -11 -18 -25 -21
-13 -3 -30 -16 -36 -29 -7 -12 -27 -40 -45 -63 -19 -22 -32 -43 -30 -45 9 -10
-31 -74 -53 -85 -13 -7 -29 -21 -35 -31 -16 -29 -137 -185 -165 -214 -14 -14
-33 -39 -41 -55 -8 -16 -26 -45 -41 -64 -14 -19 -29 -43 -32 -53 -4 -9 -17
-22 -29 -28 -13 -6 -39 -33 -58 -62 -19 -28 -50 -69 -68 -91 -18 -23 -39 -48
-45 -56 -7 -8 -33 -40 -59 -71 -27 -31 -48 -63 -48 -71 0 -8 -9 -23 -20 -33
-11 -10 -22 -26 -25 -36 -4 -11 -17 -22 -30 -25 -13 -3 -32 -17 -41 -32 -9
-14 -33 -44 -54 -66 -20 -23 -43 -54 -51 -71 -8 -16 -28 -39 -45 -50 -18 -11
-41 -33 -53 -50 -12 -16 -42 -52 -67 -80 -25 -27 -49 -60 -54 -73 -6 -12 -18
-25 -27 -29 -21 -8 -14 -1 -116 -127 -91 -112 -101 -137 -83 -205 24 -92 60
-127 145 -140 38 -6 61 -17 85 -40 17 -17 35 -31 38 -31 4 0 18 -10 32 -23 13
-12 87 -65 163 -117 76 -51 172 -117 213 -145 41 -29 86 -56 100 -60 27 -8 86
-49 110 -75 8 -9 71 -54 140 -100 137 -91 220 -148 321 -222 37 -26 70 -48 74
-48 12 0 83 -59 171 -140 45 -41 105 -93 133 -115 28 -22 53 -47 57 -55 3 -8
37 -42 75 -75 39 -33 107 -94 153 -135 46 -42 100 -84 119 -95 32 -17 39 -17
61 -5 15 7 26 20 26 28 0 7 41 53 91 100 50 48 122 128 160 177 37 50 82 106
99 125 18 19 43 52 57 73 29 43 39 46 49 15 9 -30 -10 -5492 -22 -5961 -3
-163 -2 -239 7 -264 l12 -36 461 7 c489 7 515 8 1091 28 638 22 4326 17 4589
-7 17 -2 139 -6 272 -10 199 -7 243 -5 249 6 9 13 9 214 0 1354 -4 474 -9 668
-25 870 -10 143 -24 433 -30 645 -6 212 -15 471 -20 577 -5 105 -7 382 -5 615
2 233 6 792 10 1243 3 451 8 826 10 833 14 41 85 -25 126 -116 16 -35 29 -70
29 -77 0 -7 10 -26 23 -42 13 -15 48 -70 77 -121 81 -142 113 -148 240 -47 85
68 298 227 388 290 39 28 71 56 72 63 0 7 17 20 38 29 40 16 172 109 185 130
10 16 82 65 141 97 26 14 62 37 79 51 18 15 70 51 117 81 47 29 91 59 98 64 7
6 56 41 110 77 53 37 112 81 129 99 18 18 42 35 53 39 11 4 18 11 15 16 -4 5
2 9 13 9 21 0 81 41 127 87 17 16 50 43 75 60 95 63 126 82 145 90 17 7 142
91 265 179 34 24 80 73 80 85 0 3 -27 43 -60 89 -33 46 -60 91 -60 100 0 9
-16 34 -35 56 -19 21 -35 42 -35 46 0 17 -82 106 -103 112 -17 4 -29 19 -41
49 -9 23 -16 48 -16 55 0 7 -3 12 -8 12 -4 0 -18 19 -32 41 -14 23 -37 47 -51
53 -22 9 -128 126 -115 126 13 0 -21 70 -49 100 -17 19 -62 76 -100 125 -37
50 -74 94 -82 98 -7 4 -13 14 -13 21 0 7 -11 19 -25 26 -14 7 -23 15 -21 18
13 12 -94 152 -125 164 -10 4 -23 24 -28 45 -11 41 -113 173 -134 173 -17 1
-97 110 -97 132 0 14 -56 101 -117 183 -5 6 -24 33 -42 60 -19 28 -41 54 -48
58 -7 4 -13 15 -13 23 0 8 -21 39 -46 70 -25 31 -57 74 -71 95 -14 22 -31 39
-38 39 -15 0 -65 70 -65 91 0 25 -67 120 -98 139 -36 22 -122 135 -122 161 0
10 -21 43 -47 72 -27 30 -67 76 -90 104 -88 105 -174 183 -233 213 -32 16 -66
30 -75 30 -8 0 -14 3 -12 8 1 4 -1 8 -6 9 -4 2 -29 14 -56 28 -27 13 -71 29
-98 35 -26 6 -56 18 -66 28 -18 16 -36 24 -160 68 -82 29 -115 35 -238 48 -15
1 -34 9 -42 18 -19 19 -159 54 -247 63 -104 10 -130 15 -149 25 -10 5 -21 7
-24 3 -4 -3 -11 6 -17 21 -5 14 -13 25 -17 24 -5 -2 -21 2 -38 8 -38 15 -111
36 -250 75 -60 17 -123 37 -140 44 -16 8 -68 18 -115 24 -71 9 -88 15 -105 35
-11 14 -45 34 -75 46 -72 28 -121 49 -140 60 -8 5 -35 20 -60 32 -25 13 -48
27 -51 31 -10 14 -140 38 -163 30 -12 -4 -23 -7 -26 -8 -46 -10 -75 -19 -84
-27 -39 -33 -100 -61 -231 -105 -27 -10 -56 -25 -63 -35 -7 -10 -20 -18 -28
-18 -8 0 -27 -6 -43 -14 -27 -15 -49 -18 -211 -32 -84 -8 -98 -9 -102 -14 -2
-1 -16 -4 -33 -6 -16 -2 -48 -8 -70 -13 -22 -6 -125 -15 -228 -22 -188 -12
-416 -4 -552 21 -140 25 -190 31 -306 40 -151 11 -419 63 -419 82 0 15 -65 40
-136 53 -58 10 -79 19 -103 43 -19 19 -48 34 -78 40 -61 14 -148 23 -155 17z"/>
</g>
</svg>
